<?xml version="1.0" ?><!-- Uploaded to: SVG Repo, www.svgrepo.com, Generator: SVG Repo Mixer Tools -->
<svg width="800px" height="800px" viewBox="0 -55 96 206" xmlns="http://www.w3.org/2000/svg"><title/>
<g id="SVGRepo_bgCarrier" stroke-width="0">
    <path transform="translate(-50.04, -50.04), scale(6.44)" d="M16,29.483212787125794C20.435094903881087,29.777545283464793,25.354515995293696,29.144528294551908,28.07392734579351,25.62863575756988C30.763057774071157,22.15189304190278,29.9059638056802,17.32580067312419,28.66452856630471,13.10940399851331C27.53815036676489,9.283785759028643,25.246014426283203,5.982728904591774,21.733533782880343,4.094194421878642C17.997654039171977,2.085546279570991,13.526720863526782,1.08831576884119,9.696714460681722,2.9110927089005916C5.849750094710663,4.7419402840674145,3.7398093159743544,8.835581224990264,2.9673718118052186,13.025387661891415C2.2378018286616905,16.982674814633413,3.283124851622931,20.994539510658253,5.7812338097398595,24.149194103943685C8.2908720271918,27.318408042529168,11.966324050696656,29.215520226467827,16,29.483212787125794" fill="#cef3ff" strokewidth="0"/>
</g>
<path d="M21,56V76.86A17.07,17.07,0,0,0,38,94h0A17.07,17.07,0,0,0,55,76.86V54" style="fill:none;stroke:#29a9d2;stroke-linecap:round;stroke-linejoin:round;stroke-width:4px"/><circle cx="21" cy="48" r="8" style="fill:none;stroke:#29a9d2;stroke-linecap:round;stroke-linejoin:round;stroke-width:4px"/><circle cx="21" cy="48" r="8" style="fill:none;stroke:#29a9d2;stroke-linecap:round;stroke-linejoin:round;stroke-width:4px"/><polygon points="71.5 6 76.5 4 71.5 2 71.5 6" style="fill:none;stroke:#29a9d2;stroke-linecap:round;stroke-linejoin:round;stroke-width:4px"/><path d="M36,4H31.91C29,4,26.67,7,27,10.35,29.25,30.54,38.69,54,55,54S80.75,30.54,83,10.35C83.33,7,81,4,78.09,4H74" style="fill:none;stroke:#29a9d2;stroke-linecap:round;stroke-linejoin:round;stroke-width:4px"/><polygon points="38.5 6 33.5 4 38.5 2 38.5 6" style="fill:none;stroke:#29a9d2;stroke-linecap:round;stroke-linejoin:round;stroke-width:4px"/><circle cx="21" cy="48" r="2" style="fill:none;stroke:#29a9d2;stroke-linecap:round;stroke-linejoin:round;stroke-width:4px"/></svg>