<!DOCTYPE svg PUBLIC "-//W3C//DTD SVG 1.1//EN" "http://www.w3.org/Graphics/SVG/1.1/DTD/svg11.dtd">

<!-- Uploaded to: SVG Repo, www.svgrepo.com, Transformed by: SVG Repo Mixer Tools -->
<svg height="100px" width="100px" version="1.1" id="Capa_1" xmlns="http://www.w3.org/2000/svg" xmlns:xlink="http://www.w3.org/1999/xlink" viewBox="-130.04 -195.04 942.08 1082.08 " xml:space="preserve" fill="#29a9d2">

<g id="SVGRepo_bgCarrier" stroke-width="0">

<path transform="translate(-215.04, -215.04), scale(35)" d="M16,29.483212787125794C20.435094903881087,29.777545283464793,25.354515995293696,29.144528294551908,28.07392734579351,25.62863575756988C30.763057774071157,22.15189304190278,29.9059638056802,17.32580067312419,28.66452856630471,13.10940399851331C27.53815036676489,9.283785759028643,25.246014426283203,5.982728904591774,21.733533782880343,4.094194421878642C17.997654039171977,2.085546279570991,13.526720863526782,1.08831576884119,9.696714460681722,2.9110927089005916C5.849750094710663,4.7419402840674145,3.7398093159743544,8.835581224990264,2.9673718118052186,13.025387661891415C2.2378018286616905,16.982674814633413,3.283124851622931,20.994539510658253,5.7812338097398595,24.149194103943685C8.2908720271918,27.318408042529168,11.966324050696656,29.215520226467827,16,29.483212787125794" fill="#cef3ff" strokewidth="0"/>

</g>

<g id="SVGRepo_tracerCarrier" stroke-linecap="round" stroke-linejoin="round"/>

<g id="SVGRepo_iconCarrier"> <g> <path style="fill:#29a9d2;" d="M321.26,161.009l-204.634-53.476l-3.08,3.164c-20.008,20.535-34.605,46.732-42.209,75.843 c-19.231,73.65,11.35,146.995,69.071,173.22L92.9,541.582c-36.603-7.992-65.048-9.546-66.74-2.969 c-2.026,7.687,33.162,23.533,78.534,35.382c45.428,11.877,83.835,15.263,85.861,7.548c1.721-6.549-23.782-19.12-59.636-30.054 l47.592-182.045c62.717,4.579,124.545-44.235,143.638-117.385c7.604-29.11,7.715-59.137,0.278-86.804L321.26,161.009z M216.557,318.606c0,0,67.934-29.166,64.049-56.972l18.815,4.912C299.421,266.545,291.845,315.969,216.557,318.606z M178.816,180.99c-35.909-37.547-61.385-37.713-74.677-33.412c5.078-8.27,10.851-16.04,17.261-23.061l187.373,48.952 c3.247,13.737,4.385,28.028,3.608,42.459C311.076,216.289,232.958,237.657,178.816,180.99z"/> <path style="fill:#29a9d2;" d="M554.477,605.659L512.213,422.31c57.721-25.059,89.829-96.961,72.846-170.611 c-6.771-29.332-20.591-55.973-40.016-77.008l-2.997-3.247L335.94,218.953l-1.249,4.218c-8.242,27.473-9.019,57.472-2.248,86.776 c17.094,74.178,78.201,124.961,141.529,121.437l42.237,183.127c-36.159,9.851-62.051,21.673-60.497,28.306 c1.748,7.742,40.294,5.467,85.999-5.051c45.761-10.545,81.337-25.392,79.561-33.134C619.774,598,591.358,598.721,554.477,605.659z M522.397,359.593c0,0,46.649-57.333,30.304-80.172l18.954-4.357C571.655,275.037,587.833,322.324,522.397,359.593z M425.131,255.168c-49.23-16.623-71.874-4.94-81.643,5.023c0.638-9.685,2.165-19.203,4.607-28.417L536.8,188.261 c9.241,10.656,16.9,22.783,22.894,35.965C558.695,225.086,499.364,280.254,425.131,255.168z"/> <circle style="fill:#29a9d2;" cx="444.501" cy="168.585" r="20.73"/> <circle style="fill:#29a9d2;" cx="492.621" cy="77.23" r="18.01"/> <circle style="fill:#29a9d2;" cx="454.991" cy="10.49" r="10.49"/> <circle style="fill:#29a9d2;" cx="411.117" cy="6.91" r="6.91"/> <circle style="fill:#29a9d2;" cx="283.492" cy="19.814" r="19.814"/> <path style="fill:#29a9d2;" d="M117.071,44.595c3.136,1.61,5.883,2.997,8.963,4.44c3.08,1.415,6.244,3.552,8.741,6.521 c2.525,2.914,4.745,6.41,6.66,10.185c1.998,3.746,3.691,7.853,5.051,12.099c3.025,8.464,4.773,17.622,5.966,26.89l2.192,0.167 c2.331-9.407,2.969-19.092,2.664-29.055c-0.583-9.907-2.553-20.203-7.853-29.971c-2.636-4.829-5.828-9.824-10.129-14.07 c-4.357-4.246-10.074-7.215-15.957-8.214c-11.794-2.054-23.089,1.221-31.164,8.936l0.416,2.165 C102.862,38.879,110.882,41.265,117.071,44.595z"/> <path style="fill:#29a9d2;" d="M169.27,36.575c1.166,1.055,2.22,2.442,2.886,4.079c0.694,1.665,1.166,3.497,1.415,5.411 c0.333,1.915,0.472,3.968,0.472,5.994c0.055,4.135-0.5,8.381-1.304,12.599l0.916,0.389c2.387-3.774,4.052-7.881,5.356-12.294 c1.221-4.385,1.804-9.185,0.888-14.181c-0.444-2.498-1.082-5.106-2.359-7.604c-1.277-2.47-3.358-4.607-5.772-5.883 c-4.856-2.581-10.24-2.803-14.902-0.583l-0.083,0.971c3.857,3.302,6.993,5.495,9.241,7.853 C167.133,34.494,168.132,35.493,169.27,36.575z"/> </g> </g>

</svg>