<!DOCTYPE svg PUBLIC "-//W3C//DTD SVG 1.1//EN" "http://www.w3.org/Graphics/SVG/1.1/DTD/svg11.dtd">

<!-- Uploaded to: SVG Repo, www.svgrepo.com, Transformed by: SVG Repo Mixer Tools -->
<svg fill="#29a9d2"  version="1.1" id="Layer_1" xmlns="http://www.w3.org/2000/svg" xmlns:xlink="http://www.w3.org/1999/xlink" viewBox="-215.04 -215.04 942.08 942.08" xml:space="preserve" width="100px" height="100px">

<g id="SVGRepo_bgCarrier" stroke-width="0">
    <path transform="translate(-215.04, -215.04), scale(29.44)" d="M16,29.483212787125794C20.435094903881087,29.777545283464793,25.354515995293696,29.144528294551908,28.07392734579351,25.62863575756988C30.763057774071157,22.15189304190278,29.9059638056802,17.32580067312419,28.66452856630471,13.10940399851331C27.53815036676489,9.283785759028643,25.246014426283203,5.982728904591774,21.733533782880343,4.094194421878642C17.997654039171977,2.085546279570991,13.526720863526782,1.08831576884119,9.696714460681722,2.9110927089005916C5.849750094710663,4.7419402840674145,3.7398093159743544,8.835581224990264,2.9673718118052186,13.025387661891415C2.2378018286616905,16.982674814633413,3.283124851622931,20.994539510658253,5.7812338097398595,24.149194103943685C8.2908720271918,27.318408042529168,11.966324050696656,29.215520226467827,16,29.483212787125794" fill="#cef3ff" strokewidth="0"/>
</g>

<g id="SVGRepo_tracerCarrier" stroke-linecap="round" stroke-linejoin="round"/>

<g id="SVGRepo_iconCarrier"> <g> <g> <g> <path d="M510.566,349.397l-17.067-25.6c-3.166-4.745-11.034-4.745-14.199,0l-9.967,14.95l-9.967-14.95 c-3.166-4.745-11.034-4.745-14.2,0l-9.967,14.95l-9.967-14.95c-3.166-4.745-11.034-4.745-14.199,0l-1.434,2.15v-65.971 l12.672,7.603c1.357,0.819,2.876,1.22,4.395,1.22c1.451,0,2.901-0.367,4.207-1.109c2.68-1.51,4.326-4.352,4.326-7.424V217.6 c0-2.995-1.579-5.777-4.139-7.313l-38.528-23.117V115.2h8.533c4.719,0,8.533-3.823,8.533-8.533V72.533 c0-4.71-3.814-8.533-8.533-8.533h-102.4c-4.719,0-8.533,3.823-8.533,8.533v34.133c0,4.71,3.814,8.533,8.533,8.533h8.533v20.77 l-46.805-28.083c-2.705-1.63-6.084-1.63-8.789,0l-170.667,102.4c-2.56,1.536-4.139,4.318-4.139,7.313v42.667 c0,3.072,1.647,5.914,4.326,7.424c2.679,1.519,5.956,1.476,8.602-0.111l12.672-7.603v65.971l-1.434-2.15 c-3.166-4.745-11.034-4.745-14.199,0l-9.967,14.95l-9.967-14.95c-3.166-4.745-11.034-4.745-14.199,0l-9.967,14.95l-9.967-14.95 c-3.166-4.745-11.034-4.745-14.199,0l-17.067,25.6C0.503,350.797,0,352.452,0,354.133v85.333C0,444.177,3.814,448,8.533,448 h34.133H76.8h34.133h179.2v-34.133H119.467V396.8h170.667v-93.867c0-4.71,3.814-8.533,8.533-8.533h68.267 c4.719,0,8.533,3.823,8.533,8.533V396.8h17.067v17.067h-17.067V448h25.6H435.2h34.133h34.133c4.719,0,8.533-3.823,8.533-8.533 v-85.333C512,352.452,511.497,350.797,510.566,349.397z M34.133,430.933H17.067v-74.214l8.533-12.8l8.533,12.8V430.933z M68.267,430.933H51.2v-74.214l8.533-12.8l8.533,12.8V430.933z M102.4,405.333v25.6H85.333v-74.214l8.533-12.8l8.533,12.8 V405.333z M307.2,81.067h85.333v17.067H384h-68.267H307.2V81.067z M375.467,115.2v61.73l-51.2-30.72V115.2H375.467z M273.067,362.667h-8.533H145.067h-8.533c-4.719,0-8.533-3.823-8.533-8.533c0-4.71,3.814-8.533,8.533-8.533v-76.8 c0-4.71,3.814-8.533,8.533-8.533h119.467c4.719,0,8.533,3.823,8.533,8.533v76.8c4.719,0,8.533,3.823,8.533,8.533 C281.6,358.844,277.786,362.667,273.067,362.667z M260.395,150.554c-2.705-1.63-6.084-1.63-8.789,0L93.867,245.197V222.43 L256,125.15l55.33,33.203c0,0,0.009,0,0.009,0.009l48.819,29.286l57.975,34.782v22.767L260.395,150.554z M426.667,430.933H409.6 v-25.6v-48.614l8.533-12.8l8.533,12.8V430.933z M460.8,430.933h-17.067v-74.214l8.533-12.8l8.533,12.8V430.933z M494.933,430.933 h-17.067v-74.214l8.533-12.8l8.533,12.8V430.933z"/> <rect x="213.333" y="277.329" width="42.667" height="25.6"/> <path d="M307.2,448h51.2V311.467h-51.2V448z M332.8,362.667h8.533c4.719,0,8.533,3.823,8.533,8.533s-3.814,8.533-8.533,8.533 H332.8c-4.719,0-8.533-3.823-8.533-8.533S328.081,362.667,332.8,362.667z"/> <rect x="213.333" y="319.996" width="42.667" height="25.6"/> <rect x="153.6" y="277.329" width="42.667" height="25.6"/> <rect x="153.6" y="319.996" width="42.667" height="25.6"/> </g> </g> </g> </g>

</svg>