<?xml version="1.0" encoding="iso-8859-1"?>
<!-- Uploaded to: SVG Repo, www.svgrepo.com, Generator: SVG Repo Mixer Tools -->
<!DOCTYPE svg PUBLIC "-//W3C//DTD SVG 1.1//EN" "http://www.w3.org/Graphics/SVG/1.1/DTD/svg11.dtd">
<svg fill="#29a9d2" height="100px" width="100px" version="1.1" id="Layer_1"
	xmlns="http://www.w3.org/2000/svg"
	xmlns:xlink="http://www.w3.org/1999/xlink" viewBox="-215.04 -195.04 942.08 842.08" xml:space="preserve">

	<g id="SVGRepo_bgCarrier" stroke-width="0">

		<path transform="translate(-215.04, -215.04), scale(28)" d="M16,29.483212787125794C20.435094903881087,29.777545283464793,25.354515995293696,29.144528294551908,28.07392734579351,25.62863575756988C30.763057774071157,22.15189304190278,29.9059638056802,17.32580067312419,28.66452856630471,13.10940399851331C27.53815036676489,9.283785759028643,25.246014426283203,5.982728904591774,21.733533782880343,4.094194421878642C17.997654039171977,2.085546279570991,13.526720863526782,1.08831576884119,9.696714460681722,2.9110927089005916C5.849750094710663,4.7419402840674145,3.7398093159743544,8.835581224990264,2.9673718118052186,13.025387661891415C2.2378018286616905,16.982674814633413,3.283124851622931,20.994539510658253,5.7812338097398595,24.149194103943685C8.2908720271918,27.318408042529168,11.966324050696656,29.215520226467827,16,29.483212787125794" fill="#cef3ff" strokewidth="0"/>

	</g>
	<path id="XMLID_94_" d="M245.691,121.045c0-4.418,3.582-8,8-8h9.561c4.418,0,8,3.582,8,8s-3.582,8-8,8h-9.561
	C249.273,129.045,245.691,125.463,245.691,121.045z M210.446,129.045h9.562c4.418,0,8-3.582,8-8s-3.582-8-8-8h-9.562
	c-4.418,0-8,3.582-8,8S206.027,129.045,210.446,129.045z M363.429,76.705v326.808c0,9.583-7.797,17.379-17.381,17.379H74.841
	c-9.583,0-17.379-7.796-17.379-17.379V76.705c0-9.583,7.796-17.38,17.379-17.38h4.083c-0.678-2.157-1.043-4.452-1.043-6.83
	c0-5.656,2.068-10.839,5.486-14.832c-3.418-3.993-5.486-9.175-5.486-14.832C77.88,10.242,88.122,0,100.71,0h62.083
	c12.588,0,22.829,10.242,22.829,22.831c0,2.379-0.365,4.673-1.043,6.831h28.575c12.588,0,22.83,10.242,22.83,22.831
	c0,2.379-0.366,4.674-1.044,6.832h111.108C355.632,59.324,363.429,67.121,363.429,76.705z M93.88,22.831
	c0,3.767,3.064,6.831,6.83,6.831h62.083c3.766,0,6.829-3.064,6.829-6.831S166.558,16,162.792,16H100.71
	C96.944,16,93.88,19.064,93.88,22.831z M93.88,52.492c0,3.767,3.064,6.832,6.83,6.832h112.443c3.766,0,6.83-3.064,6.83-6.83
	c0-3.768-3.064-6.833-6.83-6.833H100.71C96.944,45.662,93.88,48.726,93.88,52.492z M347.429,76.705c0-0.735-0.646-1.38-1.381-1.38
	H74.841c-0.748,0-1.379,0.632-1.379,1.38v326.808c0,0.734,0.645,1.379,1.379,1.379h271.207c0.736,0,1.381-0.645,1.381-1.379V76.705z
	 M306.498,113.045h-9.562c-4.418,0-8,3.582-8,8s3.582,8,8,8h9.562c4.418,0,8-3.582,8-8S310.916,113.045,306.498,113.045z
	 M210.445,193.792c-4.418,0-8,3.583-8,8c0,4.418,3.583,8,8,8c15.578-0.001,30.334,6.143,41.551,17.3
	c11.264,11.204,17.467,26.02,17.467,41.718c0,4.418,3.582,8,8,8s8-3.582,8-8c0-19.989-7.878-38.833-22.184-53.062
	C249.044,201.588,230.28,193.791,210.445,193.792z M114.391,129.045h48.028c4.418,0,8-3.582,8-8s-3.582-8-8-8h-48.028
	c-4.418,0-8,3.582-8,8S109.972,129.045,114.391,129.045z M314.498,268.811c0,57.375-46.677,104.054-104.052,104.054
	c-57.376,0-104.055-46.678-104.055-104.054c0-57.375,46.679-104.053,104.055-104.053
	C267.82,164.758,314.498,211.436,314.498,268.811z M298.498,268.811c0-48.553-39.5-88.053-88.052-88.053
	c-48.554,0-88.055,39.5-88.055,88.053s39.501,88.054,88.055,88.054C258.998,356.865,298.498,317.364,298.498,268.811z
	 M210.446,327.83c-15.929,0-31.454-6.517-42.594-17.879c-10.894-11.111-16.728-25.666-16.426-40.982
	c0.087-4.417-3.423-8.069-7.841-8.156c-4.464-0.078-8.069,3.424-8.156,7.841c-0.387,19.649,7.07,38.294,20.999,52.5
	c14.13,14.412,33.819,22.677,54.019,22.677c4.418,0,8-3.582,8-8S214.864,327.83,210.446,327.83z"/>
</svg>