<?xml version="1.0" encoding="iso-8859-1"?>
<!-- Uploaded to: SVG Repo, www.svgrepo.com, Generator: SVG Repo Mixer Tools -->
<svg fill="#29a9d2" height="100px" width="100px" version="1.1" id="Capa_1" xmlns="http://www.w3.org/2000/svg" xmlns:xlink="http://www.w3.org/1999/xlink" 
	 viewBox="-215.04 -215.04 942.08 942.08" xml:space="preserve">
<g id="SVGRepo_bgCarrier" stroke-width="0">

<path transform="translate(-215.04, -215.04), scale(29.44)" d="M16,29.483212787125794C20.435094903881087,29.777545283464793,25.354515995293696,29.144528294551908,28.07392734579351,25.62863575756988C30.763057774071157,22.15189304190278,29.9059638056802,17.32580067312419,28.66452856630471,13.10940399851331C27.53815036676489,9.283785759028643,25.246014426283203,5.982728904591774,21.733533782880343,4.094194421878642C17.997654039171977,2.085546279570991,13.526720863526782,1.08831576884119,9.696714460681722,2.9110927089005916C5.849750094710663,4.7419402840674145,3.7398093159743544,8.835581224990264,2.9673718118052186,13.025387661891415C2.2378018286616905,16.982674814633413,3.283124851622931,20.994539510658253,5.7812338097398595,24.149194103943685C8.2908720271918,27.318408042529168,11.966324050696656,29.215520226467827,16,29.483212787125794" fill="#cef3ff" strokewidth="0"/>

</g>
<g>
	<path d="M199,247.75v-17h88v-159H48v159h88v17H0v191.5h15v-176.5h481v176.5h15v-191.5H199z M100.394,86.75l21.796,21.796
		l10.606-10.606L121.606,86.75H272v97h-53.394l-69.822-69.822l-10.606,10.606l59.216,59.216H63v-97H100.394z M63,198.75h209v17H63
		V198.75z M151,230.75h33v17h-33V230.75z"/>
	<path d="M288,439.25h15v-16.5h161v16.5h15v-159.5H288V439.25z M303,407.75v-49h161v49H303z M464,294.75v49H303v-49H464z"/>
	<rect x="367.5" y="375.75" width="40" height="15"/>
	<rect x="367.5" y="311.75" width="40" height="15"/>
	<rect x="367.5" y="223.75" width="112" height="15"/>
	<rect x="367.5" y="199.75" width="112" height="15"/>
	<rect x="367.5" y="175.75" width="96" height="15"/>
</g>
</svg>