<?xml version='1.0' encoding='iso-8859-1'?>
<!-- Uploaded to: SVG Repo, www.svgrepo.com, Generator: SVG Repo Mixer Tools -->
<svg fill="#29a9d2" height="800px" width="800px" version="1.1"
  xmlns="http://www.w3.org/2000/svg" viewBox="40 -200 470 900"
  xmlns:xlink="http://www.w3.org/1999/xlink" enable-background="new 0 0 470 470">

  <g id="SVGRepo_bgCarrier" stroke-width="0">
    <path transform="translate(-215.04, -215.04), scale(29.44)" d="M16,29.483212787125794C20.435094903881087,29.777545283464793,25.354515995293696,29.144528294551908,28.07392734579351,25.62863575756988C30.763057774071157,22.15189304190278,29.9059638056802,17.32580067312419,28.66452856630471,13.10940399851331C27.53815036676489,9.283785759028643,25.246014426283203,5.982728904591774,21.733533782880343,4.094194421878642C17.997654039171977,2.085546279570991,13.526720863526782,1.08831576884119,9.696714460681722,2.9110927089005916C5.849750094710663,4.7419402840674145,3.7398093159743544,8.835581224990264,2.9673718118052186,13.025387661891415C2.2378018286616905,16.982674814633413,3.283124851622931,20.994539510658253,5.7812338097398595,24.149194103943685C8.2908720271918,27.318408042529168,11.966324050696656,29.215520226467827,16,29.483212787125794" fill="#cef3ff" strokewidth="0"/>
  </g>

  <g>
    <path d="m331.374,211.131l-26.818-17.066-11.533-70.379h1.171c4.142,0 7.5-3.358 7.5-7.5v-31.186h2.974c20.678,0 37.5-16.822 37.5-37.5v-40c0-4.142-3.358-7.5-7.5-7.5h-176.947c-4.142,0-7.5,3.358-7.5,7.5v2.5h-24.5c-4.142,0-7.5,3.358-7.5,7.5v40c0,4.142 3.358,7.5 7.5,7.5h24.5v12.5c0,4.142 3.358,7.5 7.5,7.5h8.81c-3.801,31.287-20.042,59.802-45.361,79.147-3.292,2.515-3.921,7.222-1.406,10.513 1.476,1.932 3.708,2.947 5.965,2.947 1.588,0 3.189-0.502 4.548-1.541 29.035-22.184 47.492-55.068 51.362-91.066h9.057v31.187c0,4.142 3.358,7.5 7.5,7.5h1.171l-11.533,70.379-26.818,17.066c-11.442,7.282-20.405,23.609-20.405,37.171v174.059c0,26.268 21.371,47.638 47.638,47.638h115.894c26.268,0 47.638-21.371 47.638-47.638v-174.059c-0.002-13.562-8.965-29.89-20.407-37.172zm5.405,211.231c0,17.997-14.641,32.638-32.638,32.638h-115.894c-17.997,0-32.638-14.642-32.638-32.638v-174.059c0-8.498 6.289-19.954 13.458-24.516l29.65-18.868c1.802-1.147 3.03-3.007 3.375-5.115l12.473-76.117h63.258l12.473,76.117c0.345,2.107 1.573,3.968 3.375,5.115l29.65,18.868c7.169,4.563 13.458,16.019 13.458,24.517v174.058zm-171.558-352.362v-55h161.947v32.5c0,12.407-10.093,22.5-22.5,22.5h-139.447zm-15-20h-17v-25h17v25zm136.473,35v23.687h-81v-23.687h81z"/>
    <path d="m267.298,191.091h-42.207c-4.142,0-7.5,3.358-7.5,7.5s3.358,7.5 7.5,7.5h42.207c4.142,0 7.5-3.358 7.5-7.5s-3.358-7.5-7.5-7.5z"/>
    <path d="m178.109,255.803h136.17c4.142,0 7.5-3.358 7.5-7.5 0-4.142-3.358-7.5-7.5-7.5h-136.17c-4.142,0-7.5,3.358-7.5,7.5 0,4.142 3.358,7.5 7.5,7.5z"/>
    <path d="m178.109,399.862h136.17c4.142,0 7.499-3.357 7.5-7.499 0-4.143-3.358-7.501-7.5-7.501h-136.17c-4.142,0-7.5,3.358-7.5,7.5 0.001,4.143 3.358,7.5 7.5,7.5z"/>
  </g>
</svg>