<?xml version="1.0" encoding="iso-8859-1"?>
<!-- Uploaded to: SVG Repo, www.svgrepo.com, Generator: SVG Repo Mixer Tools -->
<svg fill="#29a9d2" height="800px" width="800px" version="1.1" id="Layer_1"
	xmlns="http://www.w3.org/2000/svg"
	xmlns:xlink="http://www.w3.org/1999/xlink" viewBox="-10 -180 602 900" xml:space="preserve">



		<g id="SVGRepo_bgCarrier" stroke-width="0">
			<path transform="translate(-180.04, -180.04), scale(29)" d="M16,29.483212787125794C20.435094903881087,29.777545283464793,25.354515995293696,29.144528294551908,28.07392734579351,25.62863575756988C30.763057774071157,22.15189304190278,29.9059638056802,17.32580067312419,28.66452856630471,13.10940399851331C27.53815036676489,9.283785759028643,25.246014426283203,5.982728904591774,21.733533782880343,4.094194421878642C17.997654039171977,2.085546279570991,13.526720863526782,1.08831576884119,9.696714460681722,2.9110927089005916C5.849750094710663,4.7419402840674145,3.7398093159743544,8.835581224990264,2.9673718118052186,13.025387661891415C2.2378018286616905,16.982674814633413,3.283124851622931,20.994539510658253,5.7812338097398595,24.149194103943685C8.2908720271918,27.318408042529168,11.966324050696656,29.215520226467827,16,29.483212787125794" fill="#cef3ff" strokewidth="0"/>
		</g>

	<g>


		<g>
			<path d="M503.983,389.078c-17.572,0-26.771,5.073-34.888,9.547c-7.352,4.053-13.701,7.555-27.146,7.555
			c-13.445,0-19.794-3.501-27.146-7.555c-8.116-4.475-17.316-9.547-34.888-9.547c-17.562,0-26.757,5.073-34.868,9.548
			c-7.345,4.053-13.689,7.554-27.122,7.554c-13.438,0-19.785-3.501-27.133-7.554c-8.114-4.475-17.31-9.548-34.877-9.548
			c-17.562,0-26.755,5.073-34.867,9.548c-7.345,4.053-13.689,7.554-27.121,7.554c-13.427,0-19.769-3.5-27.112-7.553
			c-8.11-4.477-17.301-9.549-34.86-9.549s-26.749,5.073-34.859,9.549c-7.34,4.053-13.682,7.553-27.109,7.553
			c-13.427,0-19.769-3.5-27.112-7.553c-8.11-4.477-17.301-9.549-34.859-9.549c-4.427,0-8.017,3.589-8.017,8.017
			c0,4.427,3.589,8.017,8.017,8.017c13.427,0,19.769,3.5,27.111,7.553c8.11,4.477,17.301,9.549,34.86,9.549
			s26.75-5.073,34.859-9.549c7.343-4.053,13.685-7.553,27.111-7.553c13.427,0,19.769,3.5,27.112,7.553
			c8.11,4.477,17.301,9.549,34.86,9.549c17.562,0,26.755-5.073,34.867-9.549c7.345-4.053,13.689-7.553,27.121-7.553
			c13.438,0,19.784,3.501,27.133,7.554c8.114,4.475,17.311,9.548,34.877,9.548c17.563,0,26.757-5.073,34.868-9.548
			c7.345-4.053,13.689-7.554,27.122-7.554c13.445,0,19.794,3.501,27.146,7.555c8.116,4.475,17.316,9.547,34.888,9.547
			s26.77-5.073,34.888-9.547c7.352-4.053,13.701-7.555,27.146-7.555c4.427,0,8.017-3.589,8.017-8.017
			C512.002,392.668,508.411,389.078,503.983,389.078z"/>
		</g>
	</g>
	<g>
		<g>
			<path d="M441.951,440.385c-13.445,0-19.794-3.501-27.146-7.555c-8.116-4.475-17.316-9.547-34.888-9.547
			c-17.562,0-26.757,5.073-34.868,9.548c-7.345,4.053-13.689,7.554-27.122,7.554c-13.438,0-19.784-3.501-27.133-7.554
			c-8.114-4.475-17.31-9.548-34.877-9.548c-17.562,0-26.755,5.073-34.867,9.548c-7.345,4.053-13.689,7.554-27.121,7.554
			c-13.427,0-19.769-3.5-27.112-7.553c-8.11-4.477-17.301-9.549-34.86-9.549s-26.749,5.073-34.859,9.549
			c-7.341,4.053-13.683,7.553-27.11,7.553c-4.427,0-8.017,3.589-8.017,8.017c0,4.427,3.589,8.017,8.017,8.017
			c17.559,0,26.749-5.073,34.859-9.549c7.343-4.053,13.685-7.553,27.111-7.553c13.427,0,19.769,3.5,27.112,7.553
			c8.11,4.477,17.301,9.549,34.86,9.549c17.562,0,26.755-5.073,34.867-9.549c7.345-4.053,13.689-7.553,27.121-7.553
			c13.438,0,19.784,3.501,27.133,7.554c8.114,4.477,17.31,9.548,34.877,9.548c17.562,0,26.757-5.073,34.868-9.548
			c7.345-4.053,13.689-7.554,27.122-7.554c13.445,0,19.794,3.501,27.146,7.555c8.116,4.475,17.316,9.547,34.888,9.547
			c4.427,0,8.017-3.589,8.017-8.017C449.969,443.975,446.378,440.385,441.951,440.385z"/>
		</g>
	</g>
	<g>
		<g>
			<path d="M161.937,166.751c-4.427,0-8.017,3.589-8.017,8.017v196.674c0,4.427,3.589,8.017,8.017,8.017s8.017-3.589,8.017-8.017
			V174.767C169.954,170.34,166.365,166.751,161.937,166.751z"/>
		</g>
	</g>
	<g>
		<g>
			<path d="M392.818,55.584h-17.102c-26.9,0-52.04,12.709-68.09,34.205h-28.207c1.098-2.819,1.7-5.883,1.7-9.086
			c0-13.851-11.268-25.119-25.119-25.119h-17.102c-46.856,0-84.977,38.121-84.977,84.977c0,4.427,3.589,8.017,8.017,8.017
			s8.017-3.589,8.017-8.017c0-38.015,30.928-68.944,68.944-68.944H256c5.01,0,9.086,4.076,9.086,9.086s-4.076,9.086-9.086,9.086
			h-25.653c-4.427,0-8.017,3.589-8.017,8.017s3.589,8.017,8.017,8.017h81.423c2.672,0,5.168-1.332,6.658-3.551
			c12.877-19.194,34.293-30.654,57.288-30.654h17.102c5.01,0,9.086,4.076,9.086,9.086s-4.076,9.086-9.086,9.086h-17.102
			c-27.995,0-50.772,22.777-50.772,50.772v179.576c0,4.427,3.589,8.017,8.017,8.017s8.017-3.589,8.017-8.017V140.561
			c0-19.155,15.584-34.739,34.739-34.739h17.102c13.851,0,25.119-11.268,25.119-25.119S406.669,55.584,392.818,55.584z"/>
		</g>
	</g>
	<g>
		<g>
			<path d="M332.96,346.318c-4.427,0-8.017,3.589-8.017,8.017v17.107c0,4.427,3.589,8.017,8.017,8.017s8.017-3.589,8.017-8.017
			v-17.107C340.977,349.908,337.388,346.318,332.96,346.318z"/>
		</g>
	</g>
	<g>
		<g>
			<path d="M298.756,260.811H196.142c-4.427,0-8.017,3.589-8.017,8.017v34.205c0,4.427,3.589,8.017,8.017,8.017h102.614
			c4.427,0,8.017-3.589,8.017-8.017v-34.205C306.772,264.4,303.183,260.811,298.756,260.811z M290.739,295.016h-86.58v-18.171h86.58
			V295.016z"/>
		</g>
	</g>
	<g>
		<g>
			<path d="M298.756,329.22H196.142c-4.427,0-8.017,3.589-8.017,8.017v34.205c0,4.427,3.589,8.017,8.017,8.017
			s8.017-3.589,8.017-8.017v-26.188h86.58v26.188c0,4.427,3.589,8.017,8.017,8.017s8.017-3.589,8.017-8.017v-34.205
			C306.772,332.81,303.183,329.22,298.756,329.22z"/>
		</g>
	</g>
	<g>
		<g>
			<path d="M298.756,192.402H196.142c-4.427,0-8.017,3.589-8.017,8.017v34.205c0,4.427,3.589,8.017,8.017,8.017h102.614
			c4.427,0,8.017-3.589,8.017-8.017v-34.205C306.772,195.991,303.183,192.402,298.756,192.402z M290.739,226.606h-86.58v-18.171
			h86.58V226.606z"/>
		</g>
	</g>
	<g>
		<g>
			<path d="M298.756,123.993h-94.063c-9.136,0-16.568,7.432-16.568,16.568v25.653c0,4.427,3.589,8.017,8.017,8.017h102.614
			c4.427,0,8.017-3.589,8.017-8.017v-34.205C306.772,127.582,303.183,123.993,298.756,123.993z M290.739,158.197h-86.58v-17.637
			c0-0.295,0.239-0.534,0.534-0.534h86.046V158.197z"/>
		</g>
	</g>
</svg>