<?xml version="1.0" encoding="iso-8859-1"?>
<!-- Uploaded to: SVG Repo, www.svgrepo.com, Generator: SVG Repo Mixer Tools -->
<svg fill="#29a9d2" version="1.1" id="Layer_1"
	xmlns="http://www.w3.org/2000/svg"
	xmlns:xlink="http://www.w3.org/1999/xlink" viewBox="20 -170 290.626 560.626" xml:space="preserve">

	<g id="SVGRepo_bgCarrier" stroke-width="0">
		<path transform="translate(-160.04, -180.04), scale(18.6)" d="M16,29.483212787125794C20.435094903881087,29.777545283464793,25.354515995293696,29.144528294551908,28.07392734579351,25.62863575756988C30.763057774071157,22.15189304190278,29.9059638056802,17.32580067312419,28.66452856630471,13.10940399851331C27.53815036676489,9.283785759028643,25.246014426283203,5.982728904591774,21.733533782880343,4.094194421878642C17.997654039171977,2.085546279570991,13.526720863526782,1.08831576884119,9.696714460681722,2.9110927089005916C5.849750094710663,4.7419402840674145,3.7398093159743544,8.835581224990264,2.9673718118052186,13.025387661891415C2.2378018286616905,16.982674814633413,3.283124851622931,20.994539510658253,5.7812338097398595,24.149194103943685C8.2908720271918,27.318408042529168,11.966324050696656,29.215520226467827,16,29.483212787125794" fill="#cef3ff" strokewidth="0"/>
	</g>

	<g>
		<g>
			<g>
				<path d="M257.813,253.126L257.813,253.126v-18.751h-9.375V51.563C248.438,23.133,225.305,0,196.875,0
				s-51.563,23.133-51.563,51.563v84.375c0,2.583-2.105,4.688-4.688,4.688H109.27c-7.908-2.236-16.242-3.708-24.895-4.327v-14.423
				H42.188v14.063h-9.375C14.719,135.938,0,150.656,0,168.75v60.938c0,12.923,10.514,23.438,23.438,23.438h26.198
				c5.578,13.725,19.036,23.438,34.739,23.438s29.161-9.712,34.739-23.438h40.261c12.923,0,23.438-10.514,23.438-23.438
				c0-24.427-10.233-46.383-27.244-62.902c10.444-4.111,17.869-14.273,17.869-26.161V51.563c0-12.923,10.514-23.438,23.438-23.438
				s23.438,10.514,23.438,23.438v182.813h-9.375v18.75h-32.813v37.5h112.5v-37.5H257.813z M51.563,131.25H75v4.688H51.563V131.25z
				 M84.375,267.188c-15.511,0-28.125-12.614-28.125-28.125s12.614-28.125,28.125-28.125s28.125,12.614,28.125,28.125
				S99.886,267.188,84.375,267.188z M173.438,229.687c0,7.754-6.31,14.063-14.063,14.063h-37.823
				c0.192-1.537,0.323-3.098,0.323-4.688c0-20.677-16.823-37.5-37.5-37.5s-37.5,16.823-37.5,37.5c0,1.589,0.131,3.15,0.323,4.688
				h-23.76c-7.753,0-14.063-6.309-14.063-14.063V168.75c0-12.923,10.514-23.438,23.438-23.438h9.375H75
				C130.2,145.312,173.438,182.376,173.438,229.687z M196.875,18.75c-18.094,0-32.813,14.719-32.813,32.813v89.063
				c0,9.83-7.627,17.827-17.264,18.6c-4.434-3.408-9.206-6.492-14.269-9.225h8.095c7.753,0,14.063-6.309,14.063-14.063V51.563
				c0-23.259,18.928-42.188,42.188-42.188s42.188,18.928,42.188,42.188v182.813h-9.375V51.563
				C229.688,33.469,214.969,18.75,196.875,18.75z M220.313,243.75h28.125v9.375h-28.125V243.75z M281.251,281.25L281.251,281.25
				H187.5V262.5h23.438h46.875h23.438V281.25z"/>
				<rect x="159.375" y="281.25" width="9.375" height="9.375"/>
				<rect x="140.625" y="281.25" width="9.375" height="9.375"/>
				<rect x="121.875" y="281.25" width="9.375" height="9.375"/>
				<rect x="18.75" y="159.375" width="9.375" height="9.375"/>
				<rect x="18.75" y="178.125" width="9.375" height="9.375"/>
				<path d="M84.375,220.313c-10.341,0-18.75,8.409-18.75,18.75s8.409,18.75,18.75,18.75s18.75-8.409,18.75-18.75
				S94.716,220.313,84.375,220.313z M84.375,248.438c-5.17,0-9.375-4.205-9.375-9.375s4.205-9.375,9.375-9.375
				s9.375,4.205,9.375,9.375S89.545,248.438,84.375,248.438z"/>
			</g>
		</g>
	</g>
</svg>