<?xml version="1.0" encoding="iso-8859-1"?>
<!-- Uploaded to: SVG Repo, www.svgrepo.com, Generator: SVG Repo Mixer Tools -->
<svg fill="#29a9d2" height="800px" width="800px" version="1.1" id="Capa_1"
	xmlns="http://www.w3.org/2000/svg"
	xmlns:xlink="http://www.w3.org/1999/xlink" viewBox="0 -30 60 120" xml:space="preserve">

	<g id="SVGRepo_bgCarrier" stroke-width="0">
		<path transform="translate(-30.04, -30.04), scale(3.8)" d="M16,29.483212787125794C20.435094903881087,29.777545283464793,25.354515995293696,29.144528294551908,28.07392734579351,25.62863575756988C30.763057774071157,22.15189304190278,29.9059638056802,17.32580067312419,28.66452856630471,13.10940399851331C27.53815036676489,9.283785759028643,25.246014426283203,5.982728904591774,21.733533782880343,4.094194421878642C17.997654039171977,2.085546279570991,13.526720863526782,1.08831576884119,9.696714460681722,2.9110927089005916C5.849750094710663,4.7419402840674145,3.7398093159743544,8.835581224990264,2.9673718118052186,13.025387661891415C2.2378018286616905,16.982674814633413,3.283124851622931,20.994539510658253,5.7812338097398595,24.149194103943685C8.2908720271918,27.318408042529168,11.966324050696656,29.215520226467827,16,29.483212787125794" fill="#cef3ff" strokewidth="0"/>
	</g>

	<g>
		<g>
			<path d="M59,38h-4v-2h-4v2h-8v-4h9c0.6,0,1-0.4,1-1V15c0-0.6-0.4-1-1-1H26c-0.6,0-1,0.4-1,1v18c0,0.6,0.4,1,1,1h9v4H21v-3
			c0-0.6-0.4-1-1-1h-1v-2h1c0.6,0,1-0.4,1-1v-4c0-0.6-0.4-1-1-1H7c-0.6,0-1,0.4-1,1v3H5c-0.6,0-1,0.4-1,1v4c0,0.6,0.4,1,1,1h1v2H1
			c-0.6,0-1,0.4-1,1v5v16h2V45h2v15h2V45h48v15h2V45h2v15h2V44v-5C60,38.4,59.6,38,59,38z M51,16v11H27V16H51z M27,29h24v3h-9h-6h-9
			V29z M37,34h4v4h-4V34z M8,28h11v2h-1H8V28z M6,32h1h10v2H7H6V32z M8,36h10h1v2H8V36z M55,43H5H2v-3h5h13h16h6h16v3H55z"/>
			<path d="M6,18h14c0.6,0,1-0.4,1-1v-6c0-2.2-1.8-4-4-4h-3V0h-2v7H9c-2.2,0-4,1.8-4,4v6C5,17.6,5.4,18,6,18z M9,9h8c1.1,0,2,0.9,2,2
			v5H7v-2h5v-2H7v-1C7,9.9,7.9,9,9,9z"/>
		</g>
	</g>
</svg>